<svg xmlns="http://www.w3.org/2000/svg" viewBox="0 0 64 64" id="motorbike"><path d="M18 31.88a7.86 7.86 0 0 0-1.81.21 8 8 0 1 0 9.85 7.83v-.46A8 8 0 0 0 18 31.88ZM18 46a6 6 0 0 1-5.67-4 9.67 9.67 0 0 1-.06-4 5.9 5.9 0 0 1 4.37-4 6.16 6.16 0 0 1 1.36-.12 6 6 0 0 1 6 5.7v.34A6 6 0 0 1 18 46Zm36-6.5a8 8 0 0 0-8-7.58 7.86 7.86 0 0 0-1.81.21 8 8 0 0 0-1.83.66L41 31l-1 1 1.2 1.49a8 8 0 1 0 12.88 6.43c0-.15 0-.31-.01-.46ZM46 46a6 6 0 0 1-3.58-10.89l1.22-.72a6.48 6.48 0 0 1 1-.32 6.16 6.16 0 0 1 1.36-.19 6 6 0 0 1 6 5.7v.34A6 6 0 0 1 46 46Zm0-9.68a3.75 3.75 0 0 0-.82.09 3.64 3.64 0 1 0 4.46 3.55v-.21A3.65 3.65 0 0 0 46 36.28Zm1.64 3.64a1.64 1.64 0 1 1-2-1.6 1.5 1.5 0 0 1 .37 0 1.64 1.64 0 0 1 1.64 1.55ZM18 36.28a3.75 3.75 0 0 0-.82.09 3.64 3.64 0 1 0 4.46 3.55v-.21A3.65 3.65 0 0 0 18 36.28Zm1.64 3.64a1.64 1.64 0 1 1-2-1.6 1.5 1.5 0 0 1 .37 0 1.64 1.64 0 0 1 1.64 1.55Zm19.46-9.16c-1.59 1.44-2.86 3.72-2.86 7.4 0 .17-.07 1.64-2.52 1.64h-1.3a5.31 5.31 0 0 1-4.76-2.89l-.77-2.68a5.69 5.69 0 0 0-5-4.09c-1.17-1.27-5.56-5.71-10.29-6.15l-.17-.51L26.12 25l2.38 4a1 1 0 0 0 .86.49H37ZM30.12 17a1 1 0 0 1 1-1h2.64a1 1 0 0 1 .83.45l1.36 2L35 19h-1.13l-.65-1h-2.1a1 1 0 0 1-1-1Zm-.19 10.44-1.56-2.6 4.9-.61 2.14 3.21Zm5-4.35 1.23-2.45h1.51l5.76 7.92a10.64 10.64 0 0 0-2.47.91L38 27.74Z" data-name="21-trail motorcycle"></path></svg>